<?xml version="1.0" standalone="no"?>
<!DOCTYPE svg PUBLIC "-//W3C//DTD SVG 20010904//EN"
 "http://www.w3.org/TR/2001/REC-SVG-20010904/DTD/svg10.dtd">
<svg version="1.0" xmlns="http://www.w3.org/2000/svg"
 width="1197.000000pt" height="362.000000pt" viewBox="0 0 1197.000000 362.000000"
 preserveAspectRatio="xMidYMid meet">

<g transform="translate(0.000000,362.000000) scale(0.100000,-0.100000)"
fill="#5158FF" stroke="none">
<path d="M1855 3384 c-11 -2 -45 -9 -75 -15 -30 -6 -97 -31 -147 -55 -74 -35
-108 -59 -165 -117 -133 -132 -188 -260 -196 -447 -5 -139 9 -206 70 -330 33
-67 58 -101 123 -165 77 -76 104 -93 594 -375 282 -162 517 -296 522 -298 5
-2 9 234 9 611 0 579 -1 618 -20 691 -61 239 -241 421 -475 481 -62 16 -205
27 -240 19z m146 -328 c107 -25 185 -87 236 -186 l28 -55 3 -342 3 -343 -158
91 c-440 255 -440 255 -490 353 -38 73 -43 189 -13 268 39 105 145 196 254
218 60 12 75 11 137 -4z"/>
<path d="M1085 1753 c-607 -351 -639 -370 -701 -431 -265 -259 -267 -679 -4
-942 185 -185 441 -243 692 -156 188 66 343 229 409 431 23 69 23 77 27 615 1
300 2 586 0 635 l-3 91 -420 -243z m103 -713 c-3 -258 -4 -278 -25 -322 -63
-138 -172 -208 -321 -209 -164 -1 -302 117 -333 287 -19 104 26 232 106 301
22 20 159 104 305 189 l265 153 3 -62 c2 -34 2 -186 0 -337z"/>
<path d="M2875 1496 c-33 -8 -84 -23 -112 -35 -51 -20 -1035 -582 -1061 -606
-11 -10 -3 -18 40 -43 29 -16 264 -152 523 -301 538 -311 565 -323 735 -324
159 -2 275 35 406 128 309 221 355 689 96 976 -74 81 -183 152 -286 185 -99
32 -249 41 -341 20z m281 -341 c204 -100 259 -366 109 -532 -53 -60 -121 -98
-200 -112 -102 -19 -152 -3 -358 117 -100 57 -226 129 -279 160 -54 31 -94 59
-90 63 26 25 546 316 582 326 67 19 172 9 236 -22z"/>
</g>

<g transform="translate(0.000000,362.000000) scale(0.100000,-0.100000)"
fill="#000000" stroke="none">
<path d="M7015 2791 c-149 -24 -272 -83 -376 -179 -196 -181 -299 -465 -299
-826 0 -413 137 -736 383 -899 235 -156 589 -156 824 0 248 164 383 483 383
903 0 510 -219 879 -580 980 -84 23 -255 34 -335 21z m290 -336 c144 -70 241
-237 276 -474 17 -123 7 -393 -20 -501 -28 -110 -79 -215 -135 -277 -87 -97
-227 -145 -355 -123 -181 31 -303 168 -363 405 -21 81 -23 112 -22 305 0 189
3 225 23 295 42 156 116 280 200 338 77 53 133 68 241 64 82 -2 104 -7 155
-32z"/>
<path d="M5158 2790 c-341 -54 -578 -282 -667 -641 -31 -126 -41 -210 -41
-364 0 -455 163 -782 463 -928 122 -60 196 -77 352 -84 154 -6 275 11 394 57
144 56 298 185 321 270 24 88 -21 177 -101 201 -56 17 -103 0 -175 -63 -113
-99 -200 -141 -331 -159 -267 -37 -471 121 -555 431 -20 76 -23 106 -22 280 0
183 2 200 28 285 58 191 152 316 283 377 57 27 82 33 161 36 190 9 289 -31
474 -189 75 -65 185 -43 228 46 40 82 20 146 -70 235 -101 99 -224 164 -368
196 -83 18 -298 26 -374 14z"/>
<path d="M8535 2756 c-41 -18 -73 -56 -85 -97 -6 -21 -10 -361 -10 -883 0
-829 0 -851 20 -891 29 -60 84 -89 159 -83 67 5 111 31 135 82 14 29 16 79 16
350 l0 316 189 0 189 0 197 -322 c109 -178 208 -338 222 -356 51 -68 162 -94
231 -52 65 40 90 127 58 203 -7 18 -82 142 -166 277 -84 135 -162 259 -172
277 l-19 31 63 34 c79 42 177 137 212 206 63 123 84 321 52 473 -44 208 -197
362 -421 426 -83 23 -822 31 -870 9z m686 -295 c104 -11 178 -41 219 -88 51
-58 63 -98 64 -209 1 -93 -1 -105 -29 -158 -19 -36 -45 -69 -70 -87 -70 -50
-133 -59 -397 -59 l-238 0 0 298 c0 164 3 302 7 305 10 10 344 8 444 -2z"/>
<path d="M10450 2748 c-26 -14 -53 -37 -65 -58 -20 -34 -20 -50 -20 -905 0
-852 0 -871 20 -904 11 -19 33 -43 48 -55 28 -21 36 -21 620 -24 559 -2 594
-1 626 16 95 51 94 204 -1 262 -32 19 -52 20 -505 20 l-473 0 0 280 0 280 328
0 c292 0 331 2 361 18 74 37 100 122 63 204 -34 77 -39 78 -421 78 l-331 0 0
255 0 254 461 3 461 3 33 37 c47 51 55 111 24 175 -43 86 -16 83 -639 83
l-546 0 -44 -22z"/>
</g>
</svg>
